<svg width="26" height="23" viewBox="0 0 26 23" fill="none" xmlns="http://www.w3.org/2000/svg">
<path d="M13.4876 0.287224C14.2002 -0.356893 15.3333 0.152661 15.3333 1.1182V21.8817C15.3333 22.8473 14.2002 23.3575 13.4876 22.7121L8.29897 18.0145C7.7478 17.5155 7.03329 17.2396 6.29267 17.2396H3.31959C2.43918 17.2396 1.59483 16.8869 0.972285 16.259C0.349741 15.6311 0 14.7795 0 13.8915V9.10844C0 7.25899 1.48591 5.76031 3.31959 5.76031H6.29267C7.03329 5.76035 7.7478 5.48439 8.29897 4.98545L13.4876 0.287224Z" fill="white"/>
<path fill-rule="evenodd" clip-rule="evenodd" d="M19.2009 6.10194C19.4317 5.94147 19.7686 5.97399 19.9532 6.17458C20.505 6.77397 21.5084 7.95131 21.8676 9.60562C22.2309 11.2788 21.9232 13.3815 19.9738 15.8016C19.8042 16.012 19.4705 16.0632 19.2283 15.9159C18.9862 15.7686 18.9273 15.4786 19.0968 15.2681C20.8939 13.0371 21.1215 11.1863 20.8157 9.77809C20.5059 8.35102 19.636 7.31908 19.1173 6.75568C18.9327 6.5551 18.9701 6.26241 19.2009 6.10194Z" fill="#515B85"/>
<path fill-rule="evenodd" clip-rule="evenodd" d="M22.2372 3.10041C22.4932 2.92879 22.8503 2.98256 23.0349 3.22053C23.8453 4.26514 25.2925 6.28543 25.8097 9.11224C26.3297 11.9543 25.9005 15.5599 23.0547 19.7522C22.8863 20.0003 22.5334 20.0745 22.2665 19.918C21.9996 19.7614 21.9198 19.4333 22.0883 19.1852C24.7903 15.2045 25.1537 11.8629 24.683 9.29041C24.2095 6.70259 22.8828 4.84069 22.108 3.84205C21.9234 3.60408 21.9813 3.27204 22.2372 3.10041Z" fill="#515B85"/>
</svg>
