<svg width="17" height="24" viewBox="0 0 17 24" fill="none" xmlns="http://www.w3.org/2000/svg">
<path d="M8.39998 16.8C9.67261 16.7987 10.8927 16.2925 11.7926 15.3927C12.6925 14.4928 13.1987 13.2726 13.2 12V4.8C13.2 3.52696 12.6943 2.30606 11.7941 1.40589C10.8939 0.505713 9.67301 0 8.39998 0C7.12694 0 5.90604 0.505713 5.00586 1.40589C4.10569 2.30606 3.59998 3.52696 3.59998 4.8V12C3.6013 13.2726 4.10744 14.4928 5.00733 15.3927C5.90721 16.2925 7.12734 16.7987 8.39998 16.8Z" fill="white"/>
<path d="M16.8 12V9.60003C16.8 9.28177 16.6736 8.97654 16.4485 8.7515C16.2235 8.52645 15.9183 8.40002 15.6 8.40002C15.2817 8.40002 14.9765 8.52645 14.7515 8.7515C14.5264 8.97654 14.4 9.28177 14.4 9.60003V12C14.4 13.5913 13.7679 15.1174 12.6426 16.2427C11.5174 17.3679 9.9913 18 8.4 18C6.8087 18 5.28258 17.3679 4.15736 16.2427C3.03214 15.1174 2.4 13.5913 2.4 12V9.60003C2.4 9.28177 2.27357 8.97654 2.04853 8.7515C1.82348 8.52645 1.51826 8.40002 1.2 8.40002C0.88174 8.40002 0.576516 8.52645 0.351472 8.7515C0.126428 8.97654 0 9.28177 0 9.60003L0 12C0.00340542 14.01 0.726936 15.9523 2.03941 17.4746C3.35188 18.997 5.16641 19.9987 7.154 20.298L7.2 20.304V21.6H3.6C3.44241 21.6 3.28637 21.6311 3.14078 21.6914C2.99519 21.7517 2.8629 21.8401 2.75147 21.9515C2.64004 22.0629 2.55165 22.1952 2.49134 22.3408C2.43104 22.4864 2.4 22.6424 2.4 22.8C2.4 22.9576 2.43104 23.1137 2.49134 23.2592C2.55165 23.4048 2.64004 23.5371 2.75147 23.6486C2.8629 23.76 2.99519 23.8484 3.14078 23.9087C3.28637 23.969 3.44241 24 3.6 24H13.2C13.3576 24 13.5136 23.969 13.6592 23.9087C13.8048 23.8484 13.9371 23.76 14.0485 23.6486C14.16 23.5371 14.2484 23.4048 14.3087 23.2592C14.369 23.1137 14.4 22.9576 14.4 22.8C14.4 22.6424 14.369 22.4864 14.3087 22.3408C14.2484 22.1952 14.16 22.0629 14.0485 21.9515C13.9371 21.8401 13.8048 21.7517 13.6592 21.6914C13.5136 21.6311 13.3576 21.6 13.2 21.6H9.6V20.304C13.69 19.695 16.793 16.211 16.8 12.001V12Z" fill="#515B85"/>
</svg>
