<svg width="17" height="13" viewBox="0 0 17 13" fill="none" xmlns="http://www.w3.org/2000/svg">
<path d="M16.5767 3.00401C16.4097 2.86421 16.2069 2.7743 15.9915 2.74455C15.776 2.7148 15.5565 2.7464 15.3581 2.83574L11.6684 4.48056L9.52005 0.60208C9.41898 0.419601 9.2711 0.267551 9.09172 0.161688C8.91234 0.0558244 8.708 0 8.49987 0C8.29174 0 8.0874 0.0558244 7.90802 0.161688C7.72865 0.267551 7.58076 0.419601 7.47969 0.60208L5.33124 4.48049L1.64099 2.83538C1.44243 2.7469 1.2232 2.71576 1.00796 2.74547C0.792716 2.77518 0.590019 2.86456 0.422683 3.00355C0.255347 3.14254 0.130017 3.32562 0.0608034 3.53218C-0.00841066 3.73874 -0.0187609 3.96057 0.030918 4.17271L1.88688 12.0984C1.92219 12.2518 1.98832 12.3964 2.08122 12.5234C2.17413 12.6503 2.29187 12.7569 2.42724 12.8367C2.56332 12.917 2.71411 12.9691 2.87065 12.9898C3.0272 13.0106 3.1863 12.9995 3.33851 12.9574C6.71503 12.0225 10.281 12.0222 13.6577 12.9564C13.8098 12.9985 13.9688 13.0095 14.1253 12.9888C14.2818 12.968 14.4325 12.9159 14.5685 12.8357C14.7038 12.756 14.8215 12.6494 14.9144 12.5226C15.0073 12.3958 15.0735 12.2513 15.1089 12.0979L16.9682 4.17359C17.0188 3.96144 17.0089 3.73929 16.9396 3.5325C16.8704 3.32572 16.7446 3.14261 16.5766 3.00408L16.5767 3.00401ZM11.4144 9.51362C11.4065 9.5901 11.3836 9.66426 11.347 9.73185C11.3105 9.79945 11.261 9.85915 11.2014 9.90753C11.1419 9.95592 11.0733 9.99204 10.9998 10.0138C10.9263 10.0356 10.8492 10.0426 10.773 10.0345C9.26173 9.87533 7.73801 9.87533 6.22675 10.0345C6.07325 10.0499 5.91989 10.0038 5.80022 9.90614C5.68055 9.80849 5.60431 9.66728 5.58817 9.5134C5.57203 9.35951 5.6173 9.20548 5.71409 9.08499C5.81087 8.96449 5.9513 8.88734 6.10465 8.87041C7.69708 8.70266 9.30266 8.70266 10.8951 8.87041C10.9713 8.87845 11.0452 8.90146 11.1126 8.93813C11.1799 8.97481 11.2394 9.02443 11.2876 9.08417C11.3358 9.1439 11.3719 9.21258 11.3936 9.28628C11.4154 9.35997 11.4225 9.43725 11.4144 9.51369L11.4144 9.51362Z" fill="#1F253A"/>
</svg>
