<svg width="18" height="18" viewBox="0 0 18 18" fill="none" xmlns="http://www.w3.org/2000/svg">
<path d="M0 3.25C0 2.38805 0.34241 1.5614 0.951903 0.951903C1.5614 0.34241 2.38805 0 3.25 0H14.75C15.612 0 16.4386 0.34241 17.0481 0.951903C17.6576 1.5614 18 2.38805 18 3.25V14.75C18 15.612 17.6576 16.4386 17.0481 17.0481C16.4386 17.6576 15.612 18 14.75 18H3.25C2.38805 18 1.5614 17.6576 0.951903 17.0481C0.34241 16.4386 0 15.612 0 14.75V3.25ZM9.75 4.75C9.75 4.55109 9.67098 4.36032 9.53033 4.21967C9.38968 4.07902 9.19891 4 9 4C8.80109 4 8.61032 4.07902 8.46967 4.21967C8.32902 4.36032 8.25 4.55109 8.25 4.75V8.25H4.75C4.55109 8.25 4.36032 8.32902 4.21967 8.46967C4.07902 8.61032 4 8.80109 4 9C4 9.19891 4.07902 9.38968 4.21967 9.53033C4.36032 9.67098 4.55109 9.75 4.75 9.75H8.25V13.25C8.25 13.4489 8.32902 13.6397 8.46967 13.7803C8.61032 13.921 8.80109 14 9 14C9.19891 14 9.38968 13.921 9.53033 13.7803C9.67098 13.6397 9.75 13.4489 9.75 13.25V9.75H13.25C13.4489 9.75 13.6397 9.67098 13.7803 9.53033C13.921 9.38968 14 9.19891 14 9C14 8.80109 13.921 8.61032 13.7803 8.46967C13.6397 8.32902 13.4489 8.25 13.25 8.25H9.75V4.75Z" fill="#F1B103"/>
</svg>
